<svg xmlns="http://www.w3.org/2000/svg" xmlns:xlink="http://www.w3.org/1999/xlink" width="500" zoomAndPan="magnify" viewBox="0 0 375 248.999984" height="332" preserveAspectRatio="xMidYMid meet" version="1.0"><path fill="#d9d9d9" d="M 0.191406 248.878906 L 0.191406 180.019531 C 0.191406 143.929688 5.601562 114.316406 16.453125 91.210938 C 27.300781 68.105469 45.828125 48.460938 72.050781 32.316406 C 98.273438 16.171875 127.746094 5.402344 160.488281 0.0195312 L 160.488281 54.925781 C 137.089844 65.75 123.804688 80.210938 120.636719 98.320312 L 160.488281 98.320312 L 160.488281 248.878906 Z M 214.511719 248.878906 L 214.511719 180.019531 C 214.511719 143.929688 219.921875 114.316406 230.769531 91.210938 C 241.621094 68.105469 260.050781 48.460938 286.078125 32.316406 C 312.097656 16.171875 341.675781 5.402344 374.808594 0.0195312 L 374.808594 54.925781 C 351.410156 65.75 338.125 80.210938 334.957031 98.320312 L 374.808594 98.320312 L 374.808594 248.878906 Z M 214.511719 248.878906 " fill-opacity="1" fill-rule="nonzero"/></svg>