<svg xmlns="http://www.w3.org/2000/svg" xmlns:xlink="http://www.w3.org/1999/xlink" width="500" zoomAndPan="magnify" viewBox="0 0 375 112.499997" height="150" preserveAspectRatio="xMidYMid meet" version="1.0"><defs><g/><clipPath id="c3104383ff"><path d="M 0.828125 14.441406 L 126.273438 14.441406 L 126.273438 97.324219 L 0.828125 97.324219 Z M 0.828125 14.441406 " clip-rule="nonzero"/></clipPath></defs><g clip-path="url(#c3104383ff)"><path fill="#d9d9d9" d="M 0.894531 97.5625 L 0.894531 74.566406 C 0.894531 62.511719 2.699219 52.621094 6.324219 44.902344 C 9.949219 37.1875 16.136719 30.625 24.894531 25.234375 C 33.652344 19.839844 43.496094 16.246094 54.429688 14.445312 L 54.429688 32.785156 C 46.617188 36.398438 42.179688 41.230469 41.121094 47.277344 L 54.429688 47.277344 L 54.429688 97.5625 Z M 72.472656 97.5625 L 72.472656 74.566406 C 72.472656 62.511719 74.28125 52.621094 77.902344 44.902344 C 81.527344 37.1875 87.683594 30.625 96.375 25.234375 C 105.066406 19.839844 114.945312 16.246094 126.011719 14.445312 L 126.011719 32.785156 C 118.195312 36.398438 113.757812 41.230469 112.699219 47.277344 L 126.011719 47.277344 L 126.011719 97.5625 Z M 72.472656 97.5625 " fill-opacity="1" fill-rule="nonzero"/></g><g fill="#000000" fill-opacity="1"><g transform="translate(139.125701, 87.162247)"><g><path d="M 62.734375 -31.1875 C 62.734375 -25.625 61.847656 -20.726562 60.078125 -16.5 C 58.316406 -12.28125 55.914062 -8.8125 52.875 -6.09375 L 61.796875 5.109375 L 49.484375 5.109375 L 44.46875 -1.0625 C 41.070312 0.21875 37.425781 0.859375 33.53125 0.859375 C 27.988281 0.859375 23.015625 -0.398438 18.609375 -2.921875 C 14.203125 -5.441406 10.71875 -9.09375 8.15625 -13.875 C 5.601562 -18.65625 4.328125 -24.425781 4.328125 -31.1875 C 4.328125 -37.988281 5.601562 -43.773438 8.15625 -48.546875 C 10.71875 -53.316406 14.203125 -56.957031 18.609375 -59.46875 C 23.015625 -61.976562 27.988281 -63.234375 33.53125 -63.234375 C 39.050781 -63.234375 44.015625 -61.976562 48.421875 -59.46875 C 52.828125 -56.957031 56.3125 -53.316406 58.875 -48.546875 C 61.445312 -43.773438 62.734375 -37.988281 62.734375 -31.1875 Z M 28.96875 -21.6875 L 40.171875 -21.6875 L 44.796875 -15.75 C 46.242188 -17.46875 47.367188 -19.617188 48.171875 -22.203125 C 48.972656 -24.785156 49.375 -27.78125 49.375 -31.1875 C 49.375 -37.800781 47.929688 -42.847656 45.046875 -46.328125 C 42.160156 -49.816406 38.320312 -51.5625 33.53125 -51.5625 C 28.738281 -51.5625 24.898438 -49.816406 22.015625 -46.328125 C 19.128906 -42.847656 17.6875 -37.800781 17.6875 -31.1875 C 17.6875 -24.59375 19.128906 -19.546875 22.015625 -16.046875 C 24.898438 -12.554688 28.738281 -10.8125 33.53125 -10.8125 C 34.726562 -10.8125 35.863281 -10.921875 36.9375 -11.140625 Z M 28.96875 -21.6875 "/></g></g></g><g fill="#000000" fill-opacity="1"><g transform="translate(197.667158, 87.162247)"><g><path d="M 35.171875 -19.921875 L 35.171875 -46.78125 L 48.15625 -46.78125 L 48.15625 0 L 35.6875 0 L 35.6875 -8.5 L 35.203125 -8.5 C 34.148438 -5.757812 32.398438 -3.554688 29.953125 -1.890625 C 27.503906 -0.222656 24.523438 0.609375 21.015625 0.609375 C 16.304688 0.609375 12.492188 -0.957031 9.578125 -4.09375 C 6.660156 -7.226562 5.191406 -11.53125 5.171875 -17 L 5.171875 -46.78125 L 18.15625 -46.78125 L 18.15625 -19.3125 C 18.175781 -16.550781 18.914062 -14.367188 20.375 -12.765625 C 21.832031 -11.160156 23.789062 -10.359375 26.25 -10.359375 C 28.582031 -10.359375 30.65625 -11.171875 32.46875 -12.796875 C 34.289062 -14.421875 35.191406 -16.796875 35.171875 -19.921875 Z M 35.171875 -19.921875 "/></g></g></g><g fill="#000000" fill-opacity="1"><g transform="translate(242.413246, 87.162247)"><g><path d="M 26.3125 0.90625 C 21.582031 0.90625 17.492188 -0.0976562 14.046875 -2.109375 C 10.609375 -4.128906 7.957031 -6.953125 6.09375 -10.578125 C 4.226562 -14.203125 3.296875 -18.410156 3.296875 -23.203125 C 3.296875 -28.035156 4.226562 -32.265625 6.09375 -35.890625 C 7.957031 -39.515625 10.609375 -42.335938 14.046875 -44.359375 C 17.492188 -46.378906 21.582031 -47.390625 26.3125 -47.390625 C 31.039062 -47.390625 35.125 -46.378906 38.5625 -44.359375 C 42.007812 -42.335938 44.664062 -39.515625 46.53125 -35.890625 C 48.40625 -32.265625 49.34375 -28.035156 49.34375 -23.203125 C 49.34375 -18.410156 48.40625 -14.203125 46.53125 -10.578125 C 44.664062 -6.953125 42.007812 -4.128906 38.5625 -2.109375 C 35.125 -0.0976562 31.039062 0.90625 26.3125 0.90625 Z M 26.375 -9.140625 C 29.582031 -9.140625 32.015625 -10.476562 33.671875 -13.15625 C 35.328125 -15.832031 36.15625 -19.210938 36.15625 -23.296875 C 36.15625 -27.378906 35.328125 -30.765625 33.671875 -33.453125 C 32.015625 -36.140625 29.582031 -37.484375 26.375 -37.484375 C 23.101562 -37.484375 20.632812 -36.140625 18.96875 -33.453125 C 17.3125 -30.765625 16.484375 -27.378906 16.484375 -23.296875 C 16.484375 -19.210938 17.3125 -15.832031 18.96875 -13.15625 C 20.632812 -10.476562 23.101562 -9.140625 26.375 -9.140625 Z M 26.375 -9.140625 "/></g></g></g><g fill="#000000" fill-opacity="1"><g transform="translate(286.458903, 87.162247)"><g><path d="M 30.0625 -46.78125 L 30.0625 -37.03125 L 21.265625 -37.03125 L 21.265625 -14.375 C 21.265625 -12.59375 21.664062 -11.382812 22.46875 -10.75 C 23.28125 -10.125 24.335938 -9.8125 25.640625 -9.8125 C 26.253906 -9.8125 26.863281 -9.863281 27.46875 -9.96875 C 28.082031 -10.082031 28.550781 -10.171875 28.875 -10.234375 L 30.90625 -0.578125 C 30.257812 -0.378906 29.347656 -0.144531 28.171875 0.125 C 26.992188 0.40625 25.5625 0.578125 23.875 0.640625 C 19.164062 0.835938 15.382812 -0.179688 12.53125 -2.421875 C 9.675781 -4.660156 8.257812 -8.078125 8.28125 -12.671875 L 8.28125 -37.03125 L 1.890625 -37.03125 L 1.890625 -46.78125 L 8.28125 -46.78125 L 8.28125 -57.984375 L 21.265625 -57.984375 L 21.265625 -46.78125 Z M 30.0625 -46.78125 "/></g></g></g><g fill="#000000" fill-opacity="1"><g transform="translate(310.709845, 87.162247)"><g><path d="M 26.3125 0.90625 C 21.582031 0.90625 17.492188 -0.0976562 14.046875 -2.109375 C 10.609375 -4.128906 7.957031 -6.953125 6.09375 -10.578125 C 4.226562 -14.203125 3.296875 -18.410156 3.296875 -23.203125 C 3.296875 -28.035156 4.226562 -32.265625 6.09375 -35.890625 C 7.957031 -39.515625 10.609375 -42.335938 14.046875 -44.359375 C 17.492188 -46.378906 21.582031 -47.390625 26.3125 -47.390625 C 31.039062 -47.390625 35.125 -46.378906 38.5625 -44.359375 C 42.007812 -42.335938 44.664062 -39.515625 46.53125 -35.890625 C 48.40625 -32.265625 49.34375 -28.035156 49.34375 -23.203125 C 49.34375 -18.410156 48.40625 -14.203125 46.53125 -10.578125 C 44.664062 -6.953125 42.007812 -4.128906 38.5625 -2.109375 C 35.125 -0.0976562 31.039062 0.90625 26.3125 0.90625 Z M 26.375 -9.140625 C 29.582031 -9.140625 32.015625 -10.476562 33.671875 -13.15625 C 35.328125 -15.832031 36.15625 -19.210938 36.15625 -23.296875 C 36.15625 -27.378906 35.328125 -30.765625 33.671875 -33.453125 C 32.015625 -36.140625 29.582031 -37.484375 26.375 -37.484375 C 23.101562 -37.484375 20.632812 -36.140625 18.96875 -33.453125 C 17.3125 -30.765625 16.484375 -27.378906 16.484375 -23.296875 C 16.484375 -19.210938 17.3125 -15.832031 18.96875 -13.15625 C 20.632812 -10.476562 23.101562 -9.140625 26.375 -9.140625 Z M 26.375 -9.140625 "/></g></g></g><g fill="#000000" fill-opacity="1"><g transform="translate(354.772114, 87.162247)"><g><path d="M 11.8125 0.484375 C 10.3125 0.484375 9.019531 -0.0507812 7.9375 -1.125 C 6.863281 -2.195312 6.328125 -3.488281 6.328125 -5 C 6.328125 -6.5 6.863281 -7.785156 7.9375 -8.859375 C 9.019531 -9.941406 10.3125 -10.484375 11.8125 -10.484375 C 13.320312 -10.484375 14.613281 -9.941406 15.6875 -8.859375 C 16.757812 -7.785156 17.296875 -6.5 17.296875 -5 C 17.296875 -3.488281 16.757812 -2.195312 15.6875 -1.125 C 14.613281 -0.0507812 13.320312 0.484375 11.8125 0.484375 Z M 11.8125 0.484375 "/></g></g></g></svg>